<?xml version="1.0" standalone="no"?><!DOCTYPE svg PUBLIC "-//W3C//DTD SVG 1.1//EN" "http://www.w3.org/Graphics/SVG/1.1/DTD/svg11.dtd"><svg t="1608519346524" class="icon" viewBox="0 0 1024 1024" version="1.1" xmlns="http://www.w3.org/2000/svg" p-id="9714" xmlns:xlink="http://www.w3.org/1999/xlink" width="200" height="200"><defs><style type="text/css"></style></defs><path d="M399.4 162.6c7 0 13.6-2.7 18.6-7.8l55.2-55.2V273.3c0 14.2 11.5 25.7 25.7 25.7s25.7-11.5 25.7-25.7l0.1-173.8L580 154.9c4.8 4.9 11.3 7.5 18.1 7.5 6.8 0 13.2-2.7 18.1-7.5 10-9.9 10-26.2 0-36.2l-99.1-99.1c-4.8-4.8-11.2-7.5-18.1-7.5-6.8 0-13.2 2.7-18.1 7.5l-99.8 99c-4.8 4.9-7.5 11.5-7.4 18.4 0.1 6.9 2.8 13.4 7.8 18.3 4.6 4.7 11.1 7.3 17.9 7.3zM747.4 328.3H574.3l-4.1 0.3c-12.6 1.7-22.2 12.6-22.2 24.8l0.3 4.1c1.7 12.6 12.7 22.2 25.5 22.2h173.5l-54.7 54.8-3 3.3c-7.7 10.1-6.8 24.7 2.1 33.8 4.9 5 11.5 7.7 18.5 7.7 6.8 0 13.3-2.6 18.1-7.3l98.7-98.6 3.1-3.5c3.2-4.4 4.9-9.6 4.9-15 0-6.7-2.7-13.3-7.5-18.1L728.7 237.3l-3.4-2.9c-4.4-3.3-9.7-5-15.2-5-6.8 0-13.2 2.7-17.6 7l-3 3.4c-7.5 10.1-6.4 24.4 2.5 33.3l55.4 55.2zM304.7 471.6c4.9-4.9 7.5-11.5 7.4-18.4-0.1-6.9-2.8-13.4-7.9-18.3L249 379.7h173.7c14.2 0 25.7-11.5 25.7-25.7s-11.5-25.7-25.7-25.7H248.9L304.3 273c4.8-4.8 7.5-11.2 7.5-18.1 0-6.9-2.7-13.3-7.5-18.1-4.8-4.9-11.2-7.5-18.1-7.5-6.8 0-13.2 2.7-18.1 7.5L169 336c-4.8 4.8-7.5 11.3-7.5 18.1 0 6.7 2.7 13.3 7.5 18.1l99 99.8c4.9 4.8 11.3 7.4 18.1 7.4 7.2 0 13.7-2.8 18.6-7.8zM787.3 578.2c-10.2 0-20.3 2.2-29.5 6.3-12.9-22.6-37-36.8-65.4-36.8-9.1 0-18.1 1.7-26.6 5-11.7-25.8-37.9-43-68.8-43-6.7 0-13.4 1-19.8 2.8v-43.9c0-40.3-32.8-73.1-75-73.2-40.3 0-73.1 32.9-73.1 73.2l-0.1 218.2-26.7-25.6c-12.8-11.4-29.3-17.7-50.4-17.7h-0.6c-18.8 1.1-36 9.5-48.6 23.6l-6 6.8c-22.7 25.6-24.5 62.8-4.4 90.4l129 177.4c32.1 44 83.7 70.4 138.2 70.4h131.8c94.3 0 171-76.8 171-171.2V651.3c0.2-40.2-32.6-73.1-75-73.1z m26.3 262.6c0 67.5-54.8 122.3-122.2 122.3H559.6c-38.9 0-75.8-18.8-98.7-50.3l-129-177.2c-6.5-9-5.9-21 1.4-29.3l6-6.8c3.9-4.4 9.5-7.1 15.4-7.2l0.8-9.4v9.3c5.6 0 11 2.2 15 6l24.6 23.8c9.2 8.8 21.3 13.7 34 13.7 6.6 0 13-1.3 19.1-3.9 18.1-7.7 29.8-25.4 29.8-45.1V468.6c0-6.4 2.6-12.6 7.1-17.1 4.5-4.5 10.8-7.1 19.1-7.1 6.4 0 12.6 2.6 17.2 7.1 4.5 4.5 7.1 10.7 7.1 17.1v204.6c0 12.7 9.6 22.4 22.3 22.4 12.7 0 22.3-9.6 22.3-22.4v-90.4c0-13.4 10.9-24.2 26.1-24.3 6.4 0 12.6 2.6 17.2 7.1 4.5 4.5 7.1 10.7 7.1 17.1V696c0 12.7 9.6 22.4 22.4 22.4 12.7 0 22.3-9.6 22.3-22.4v-75.2c0-6.5 2.5-12.6 7.1-17.2s10.7-7.1 19-7.1c6.5 0 12.6 2.5 17.2 7.1 4.5 4.5 7.1 10.7 7.1 17.1v98c0 12.7 9.6 22.4 22.3 22.4 12.7 0 22.3-9.6 22.3-22.4v-67.6c0-13.4 10.9-24.2 26.1-24.2 13.4 0 24.2 10.9 24.2 24.2v189.7z" p-id="9715" fill="#fbbd08"></path></svg>