<?xml version="1.0" standalone="no"?><!DOCTYPE svg PUBLIC "-//W3C//DTD SVG 1.1//EN" "http://www.w3.org/Graphics/SVG/1.1/DTD/svg11.dtd"><svg t="1608615405503" class="icon" viewBox="0 0 1024 1024" version="1.1" xmlns="http://www.w3.org/2000/svg" p-id="126985" xmlns:xlink="http://www.w3.org/1999/xlink" width="200" height="200"><defs><style type="text/css"></style></defs><path d="M592.4 469.7c-22.9 23.4-22.9 61.4 0 84.9l116.8 127.9c22.9 23.4 60 23.4 82.8 0 22.9-23.4 22.9-61.4 0-84.8l-75.5-85.5 75.5-85.5c22.9-23.4 22.9-61.4 0-84.9-22.9-23.4-60-23.4-82.8 0L592.4 469.7z m0 0" p-id="126986" fill="#dddddd"></path><path d="M678.8 856.7L303.4 512.1l375.4-344.6c22.9-23.4 22.9-61.4 0-84.9-22.9-23.4-60-23.4-82.8 0l-416.7 387c-22.9 23.4-22.9 61.4 0 84.9l416.8 387c22.9 23.4 60 23.4 82.8 0 22.8-23.4 22.8-61.4-0.1-84.8z m0 0" p-id="126987" fill="#dddddd"></path></svg>